<svg height="511pt" viewBox="0 0 511.99996 511" width="511pt" xmlns="http://www.w3.org/2000/svg"><path d="m82.402344 280.121094c-16.914063-7.566406-37.089844-3.847656-50.195313 9.257812l-27.816406 27.816406c-6.902344 6.902344-5.464844 18.453126 2.890625 23.46875l88.152344 52.890626-33.785156 33.78125c-5.859376 5.859374-5.859376 15.355468 0 21.214843 5.855468 5.855469 15.355468 5.855469 21.210937 0l34.359375-34.359375 54.613281 91.023438c5.042969 8.410156 16.601563 9.753906 23.46875 2.890625l27.816407-27.816407c13.105468-13.105468 16.824218-33.28125 9.253906-50.199218l-22.742188-50.828125 73.9375-67.414063 142.902344 171.640625c5.636719 6.769531 15.886719 7.253907 22.132812 1.007813 29.59375-29.59375 36.941407-75.351563 16.910157-113.050782l-18.4375-34.703124 15.949219-15.945313c17.582031-17.585937 17.585937-46.046875 0-63.632813-16.570313-16.570312-42.484376-17.363281-59.972657-3.277343l-18.246093-34.339844 103.191406-94.082031c30.75-27.359375 32.167968-74.855469 3.027344-103.996094-29.09375-29.09375-76.601563-27.753906-103.996094 3.03125l-94.078125 103.191406-37.257813-19.796875c14.835938-17.632812 14.03125-44.03125-2.660156-60.71875-17.582031-17.585937-46.042969-17.585937-63.628906 0l-16.652344 16.648438-31.703125-16.84375c-36.960937-19.636719-82.867187-13.269531-113.046875 16.914062-6.238281 6.234375-5.769531 16.488281 1.007812 22.132813l171.640626 142.898437-67.414063 73.941407zm338.199218-1.746094c5.859376-5.859375 15.347657-5.863281 21.207032 0 5.859375 5.859375 5.863281 15.347656 0 21.207031l-9.453125 9.457031-14.71875-27.699218zm18.421876 107.148438c11.039062 20.777343 10.171874 45.0625-1.355469 64.535156l-131.910157-158.441406 56.164063-51.207032c21.777344 40.988282 59.402344 111.804688 77.101563 145.113282zm-228.410157-317.136719c5.859375-5.859375 15.34375-5.863281 21.207031 0 5.859376 5.859375 5.863282 15.34375 0 21.207031l-3.667968 3.667969-27.699219-14.71875zm-148.175781 6.4375c19.472656-11.527344 43.757812-12.394531 64.535156-1.351563 14.75 7.839844 129.460938 68.785156 145.109375 77.101563l-51.203125 56.160156zm85.65625 256.269531s261.261719-286.554688 261.304688-286.605469c15.945312-17.976562 43.5625-18.660156 60.414062-1.808593 16.855469 16.855468 16.164062 44.476562-1.804688 60.414062-.050781.046875-286.609374 261.304688-286.609374 261.304688-4.78125 4.363281-6.226563 11.300781-3.582032 17.210937l27.171875 60.734375c2.523438 5.636719 1.285157 12.363281-3.085937 16.730469l-14.230469 14.234375-48.589844-80.984375 6.144531-6.144531c5.855469-5.855469 5.855469-15.351563 0-21.210938-5.855468-5.855469-15.355468-5.855469-21.210937 0l-6.71875 6.71875-78.109375-46.867188 14.230469-14.230468c4.371093-4.371094 11.09375-5.609375 16.734375-3.085938l60.730468 27.175782c5.914063 2.644531 12.847657 1.195312 17.210938-3.585938zm0 0"/></svg>